<svg width="35" height="35" viewBox="0 0 35 35" fill="none" xmlns="http://www.w3.org/2000/svg">
<path d="M17.5 0C7.65625 0 0 7.65625 0 17.5C0 28.9844 10.3906 33.9062 12.0312 33.9062C13.125 33.9062 13.125 33.3594 13.125 32.8125V30.0781C9.29688 31.1719 7.65625 28.9844 7.10938 27.3438C7.10938 27.3438 7.10938 26.7969 6.01562 25.7031C5.46875 25.1562 3.28125 24.0625 5.46875 24.0625C7.10938 24.0625 8.20312 26.25 8.20312 26.25C9.84375 28.4375 12.0312 27.8906 13.125 27.3438C13.125 26.25 14.2188 25.1562 14.2188 25.1562C9.84375 24.6094 6.5625 22.9688 6.5625 16.9531C6.5625 14.7656 7.10938 13.125 8.20312 12.0312C8.20312 12.0312 7.10938 9.84375 8.20312 7.10938C8.20312 7.10938 10.9375 7.10938 13.125 9.29688C14.7656 8.20312 20.2344 8.20312 21.875 9.29688C24.0625 7.10938 26.7969 7.10938 26.7969 7.10938C27.8906 10.9375 26.7969 12.0312 26.7969 12.0312C27.8906 13.125 28.4375 14.7656 28.4375 16.9531C28.4375 22.9688 24.6094 24.6094 20.7812 25.1562C21.3281 25.7031 21.875 26.7969 21.875 28.4375V32.8125C21.875 33.3594 21.875 33.9062 22.9688 33.9062C24.6094 33.9062 35 28.9844 35 17.5C35 7.65625 27.3438 0 17.5 0Z" fill="#A49F9C"/>
</svg>
