<svg width="30" height="30" viewBox="0 0 30 30" fill="none" xmlns="http://www.w3.org/2000/svg">
<path d="M25.56 25.5645H21.117V18.6045C21.117 16.944 21.0825 14.808 18.801 14.808C16.485 14.808 16.131 16.614 16.131 18.4815V25.5645H11.6895V11.25H15.9555V13.2H16.014C16.6095 12.075 18.06 10.89 20.226 10.89C24.7275 10.89 25.56 13.851 25.56 17.7075V25.5645ZM6.6705 9.291C5.2395 9.291 4.0905 8.1345 4.0905 6.711C4.0905 5.2875 5.241 4.131 6.6705 4.131C7.35476 4.131 8.01099 4.40282 8.49484 4.88666C8.97868 5.37051 9.2505 6.02674 9.2505 6.711C9.2505 7.39526 8.97868 8.05149 8.49484 8.53534C8.01099 9.01918 7.35476 9.291 6.6705 9.291V9.291ZM8.8965 25.566H4.4415V11.25H8.8965V25.5645V25.566ZM27.7815 0H2.214C0.99 0 0 0.9675 0 2.16V27.84C0 29.0325 0.99 30 2.214 30H27.777C28.9995 30 30 29.034 30 27.84V2.16C30 0.969 28.9995 0 27.777 0H27.7815Z" fill="#A49F9C"/>
</svg>
