<svg width="48" height="31" viewBox="0 0 48 31" fill="none" xmlns="http://www.w3.org/2000/svg">
<path d="M2.23349 4.97125e-05C1.00037 4.97125e-05 0 1.02828 0 2.29696V28.7031C0 29.9716 1.00051 31 2.23349 31H45.7665C46.9996 31 48 29.9718 48 28.7031V2.29691C48 1.02843 46.9995 0 45.7665 0H2.23344L2.23349 4.97125e-05ZM15.7395 3.73159C18.4794 3.73159 20.9957 4.71189 22.971 6.34936C21.3091 7.87858 20.0695 9.8877 19.458 12.165H20.4165C20.981 10.2863 22.0064 8.61369 23.358 7.28726C24.7096 8.61369 25.7349 10.2863 26.2995 12.165H27.273C26.6529 9.8997 25.4117 7.90257 23.751 6.38332C25.73 4.72507 28.2563 3.73154 31.008 3.73154C37.3579 3.73154 42.5054 9.02582 42.5054 15.5571C42.5054 22.0884 37.3579 27.3826 31.008 27.3826C28.2105 27.3826 25.6454 26.3558 23.652 24.6476C25.4352 23.0522 26.7498 20.9134 27.351 18.4803H26.4134C25.8796 20.5225 24.8052 22.3388 23.3579 23.7591C21.9107 22.3388 20.8378 20.5225 20.3039 18.4803H19.4114C20.0161 20.8782 21.3136 22.987 23.0699 24.5674C21.0801 26.2544 18.5251 27.2685 15.7394 27.2685C9.38951 27.2685 4.242 21.9996 4.242 15.5C4.242 9.0004 9.38951 3.73159 15.7395 3.73159ZM30.1455 12.0446C28.764 12.0446 27.42 13.2867 27.42 15.6188C27.42 17.1652 28.1459 18.1857 29.574 18.1857C29.9777 18.1858 30.621 18.016 30.621 18.016L30.834 16.6647C30.834 16.6647 30.2469 16.9701 29.844 16.9701C28.9951 16.9701 28.6545 16.2987 28.6545 15.5772C28.6545 14.1134 29.3849 13.308 30.198 13.308C30.8077 13.308 31.2975 13.6628 31.2975 13.6628L31.4925 12.3485C31.4925 12.3485 30.7675 12.0446 30.1454 12.0446H30.1455ZM41.76 12.1588L40.5585 12.1619L40.3005 13.7878C40.3005 13.7878 39.8488 13.1568 39.1425 13.1568C38.0442 13.1568 37.1295 14.4985 37.1295 16.0415C37.1295 17.0375 37.6163 18.0144 38.6145 18.0144C39.3325 18.0144 39.7305 17.507 39.7305 17.507L39.678 17.9404H40.845L41.76 12.1588ZM7.34697 12.1757L6.38999 17.9712H7.54348L8.2725 13.6011L8.3805 17.9712H9.20548L10.7445 13.6011L10.062 17.9712H11.2875L12.2325 12.1757H10.3365L9.15599 15.7314L9.0945 12.1758H7.34702L7.34697 12.1757ZM19.398 12.5521C19.3719 12.579 18.7005 16.5607 18.7005 17.0457C18.7005 17.7637 19.0918 18.0844 19.6425 18.0792C20.0371 18.0758 20.3426 17.9739 20.484 17.9312C20.4988 17.9271 20.5275 17.9188 20.5275 17.9188L20.676 16.8822C20.5952 16.8822 20.4763 16.9177 20.3715 16.9177C19.9603 16.9177 19.9148 16.6927 19.941 16.5258L20.2725 14.411H20.898L21.0495 13.2648H20.46L20.58 12.5521H19.398V12.5521ZM33.3405 13.1352C32.5354 13.1352 31.9185 13.4083 31.9185 13.4083L31.7475 14.4727C31.7475 14.4727 32.257 14.2551 33.027 14.2551C33.4642 14.2551 33.7844 14.3066 33.7844 14.6809C33.7844 14.9083 33.7455 14.9925 33.7455 14.9925C33.7455 14.9925 33.3998 14.9617 33.24 14.9617C32.2247 14.9617 31.158 15.4193 31.158 16.7958C31.158 17.8804 31.8582 18.1286 32.292 18.1286C33.1204 18.1286 33.4776 17.5627 33.4965 17.5609L33.4575 18.033H34.491L34.953 14.6269C34.9531 13.1817 33.7562 13.1352 33.3405 13.1352V13.1352ZM13.953 13.1414C13.1449 13.1414 12.525 13.4144 12.525 13.4144L12.354 14.4789C12.354 14.4789 12.8652 14.2613 13.638 14.2613C14.0768 14.2613 14.3985 14.3129 14.3985 14.6871C14.3985 14.9143 14.3595 14.9987 14.3595 14.9987C14.3595 14.9987 14.0128 14.9678 13.8525 14.9678C12.8333 14.9678 11.763 15.4247 11.763 16.8004C11.763 17.8845 12.4647 18.1332 12.9 18.1332C13.7314 18.1332 14.0899 17.5672 14.109 17.5656L14.07 18.0376H15.108L15.5715 14.6331C15.5715 13.1887 14.3702 13.1414 13.953 13.1414V13.1414ZM17.619 13.1414C16.7513 13.1414 15.87 13.5016 15.87 14.7318C15.87 16.1257 17.3385 15.9849 17.3385 16.5721C17.3385 16.964 16.9287 16.9964 16.6125 16.9964C16.0653 16.9964 15.5732 16.8019 15.5715 16.8113L15.414 17.8756C15.4423 17.8847 15.747 18.0252 16.731 18.0252C16.9952 18.0252 18.5055 18.0942 18.5055 16.4765C18.5055 14.964 17.1075 15.2638 17.1075 14.6562C17.1075 14.3537 17.3345 14.2582 17.751 14.2582C17.9164 14.2582 18.5535 14.3123 18.5535 14.3123L18.7005 13.237C18.7005 13.2372 18.2894 13.1414 17.619 13.1414H17.619ZM23.043 13.1414C21.8372 13.1417 20.9445 14.4751 20.9445 15.9813C20.9445 17.7198 22.063 18.1332 23.016 18.1332C23.8956 18.1332 24.2835 17.9312 24.2835 17.9312L24.4935 16.7449C24.4935 16.7449 23.8243 17.0473 23.22 17.0473C21.9323 17.0473 22.158 16.0615 22.158 16.0615H24.5955C24.5955 16.0615 24.753 15.2649 24.753 14.9401C24.753 14.1295 24.3596 13.1414 23.043 13.1414H23.043ZM27.4095 13.1923C26.8663 13.1923 26.463 13.9436 26.463 13.9436L26.5709 13.254H25.443L24.6855 18.0145H25.932C26.285 15.9816 26.3495 14.331 27.192 14.6331C27.3394 13.8463 27.4825 13.5423 27.6435 13.2093C27.6435 13.2093 27.5679 13.1923 27.4095 13.1923H27.4095ZM37.5089 13.1923C36.9658 13.1923 36.5625 13.9436 36.5625 13.9436L36.6705 13.254H35.5425L34.7849 18.0145H36.03C36.3831 15.9816 36.4492 14.331 37.2915 14.6331C37.4392 13.8463 37.5821 13.5423 37.743 13.2093C37.743 13.2093 37.6673 13.1923 37.509 13.1923H37.5089ZM23.037 14.2151C23.7218 14.2151 23.5965 15.01 23.5965 15.0743H22.248C22.248 14.9922 22.3756 14.2151 23.037 14.2151H23.037ZM39.3315 14.3076C39.7673 14.3075 39.9915 14.6103 39.9915 15.3226C39.9915 15.969 39.6745 16.8328 39.018 16.8328C38.5822 16.8328 38.3774 16.4628 38.3774 15.8826C38.3774 14.9339 38.7995 14.3076 39.3314 14.3076H39.3315ZM33.342 15.9273C33.5198 15.9276 33.5565 15.9453 33.5865 15.9536C33.5822 15.9528 33.5813 15.9537 33.5985 15.9566C33.621 16.1686 33.4739 17.163 32.7629 17.163C32.3964 17.163 32.3025 16.8632 32.3025 16.6863C32.3025 16.3413 32.4771 15.9273 33.342 15.9273ZM13.9545 15.932C14.1564 15.9322 14.1785 15.9554 14.2125 15.9613C14.2351 16.1732 14.0874 17.166 13.374 17.166C13.006 17.166 12.9105 16.8677 12.9105 16.6909C12.9105 16.3462 13.0862 15.932 13.9545 15.932Z" fill="#A49F9C"/>
</svg>
