<svg width="40" height="32" viewBox="0 0 40 32" fill="none" xmlns="http://www.w3.org/2000/svg">
<path d="M12.9377 16.1525C12.9377 17 12.264 17.645 11.4102 17.645C10.7715 17.645 10.299 17.2838 10.299 16.6038C10.299 15.7563 10.959 15.0763 11.8065 15.0763C12.4527 15.0763 12.939 15.4725 12.939 16.1525H12.9377ZM5.59024 12.785H5.26399C5.16024 12.785 5.05524 12.855 5.04149 12.9725L4.74274 14.8275L5.31274 14.8063C6.07649 14.8063 6.66649 14.7025 6.80524 13.82C6.96524 12.8888 6.37524 12.785 5.59024 12.785V12.785ZM25.3127 12.785H25.0002C24.8752 12.785 24.7915 12.855 24.7777 12.9725L24.4865 14.8275L25.0415 14.8063C25.944 14.8063 26.569 14.5975 26.569 13.5563C26.5615 12.82 25.9027 12.785 25.3115 12.785H25.3127ZM40.0002 3.77751V28.2225C39.9999 29.1066 39.6486 29.9543 39.0234 30.5795C38.3983 31.2046 37.5506 31.5559 36.6665 31.5563H3.33274C2.44868 31.5559 1.60092 31.2046 0.975792 30.5795C0.350664 29.9543 -0.000675784 29.1066 -0.00100708 28.2225V3.77751C-0.000675784 2.89344 0.350664 2.04568 0.975792 1.42055C1.60092 0.795427 2.44868 0.444087 3.33274 0.443756H36.6665C37.5506 0.444087 38.3983 0.795427 39.0234 1.42055C39.6486 2.04568 39.9999 2.89344 40.0002 3.77751V3.77751ZM8.91024 13.18C8.91024 11.7213 7.78524 11.235 6.50024 11.235H3.72274C3.63302 11.2357 3.54667 11.2693 3.48008 11.3294C3.41349 11.3896 3.37129 11.4721 3.36149 11.5613L2.22274 18.6513C2.20149 18.79 2.30649 18.9288 2.44524 18.9288H3.76524C3.95274 18.9288 4.12649 18.7275 4.14774 18.5325L4.46024 16.685C4.53024 16.185 5.37649 16.3588 5.71024 16.3588C7.69649 16.3588 8.91149 15.1788 8.91149 13.1788L8.91024 13.18ZM14.7577 13.7913H13.4377C13.174 13.7913 13.1602 14.1738 13.1465 14.3613C12.744 13.7713 12.1602 13.6663 11.5002 13.6663C9.79899 13.6663 8.50024 15.1588 8.50024 16.805C8.50024 18.1588 9.34774 19.0413 10.7015 19.0413C11.3265 19.0413 12.104 18.7013 12.5415 18.215C12.5011 18.3555 12.4776 18.5002 12.4715 18.6463C12.4715 18.8063 12.5415 18.9238 12.694 18.9238H13.889C14.0765 18.9238 14.2365 18.7225 14.2715 18.5275L14.9802 14.0625C15.0015 13.93 14.8965 13.7913 14.7577 13.7913V13.7913ZM17.5702 20.59L21.994 14.1588C22.029 14.1238 22.029 14.0888 22.029 14.0413C22.029 13.9238 21.9252 13.7988 21.8065 13.7988H20.4727C20.4107 13.8012 20.3501 13.8182 20.2958 13.8484C20.2415 13.8786 20.1951 13.9211 20.1602 13.9725L18.3202 16.6813L17.5565 14.0775C17.5278 13.9983 17.476 13.9295 17.4078 13.8801C17.3396 13.8306 17.2582 13.8027 17.174 13.8H15.8752C15.7565 13.8 15.6527 13.925 15.6527 14.0425C15.6527 14.1263 17.0065 17.9875 17.1252 18.355C16.9377 18.6188 15.7015 20.3413 15.7015 20.55C15.7015 20.675 15.8052 20.7725 15.924 20.7725H17.2577C17.3201 20.7684 17.3807 20.75 17.4349 20.7188C17.4891 20.6876 17.5354 20.6444 17.5702 20.5925V20.59ZM28.6327 13.18C28.6327 11.7213 27.5077 11.235 26.2227 11.235H23.4652C23.3729 11.2343 23.2834 11.2668 23.2131 11.3268C23.1429 11.3867 23.0966 11.47 23.0827 11.5613L21.9577 18.645C21.944 18.7838 22.0477 18.9225 22.1802 18.9225H23.604C23.7427 18.9225 23.8465 18.8188 23.8815 18.7L24.194 16.6863C24.264 16.1863 25.1115 16.36 25.444 16.36C27.4165 16.36 28.6315 15.18 28.6315 13.18H28.6327ZM34.479 13.7913H33.159C32.8952 13.7913 32.8815 14.1738 32.8602 14.3613C32.4777 13.7713 31.8877 13.6663 31.214 13.6663C29.5127 13.6663 28.214 15.1588 28.214 16.805C28.214 18.1588 29.0615 19.0413 30.4152 19.0413C31.0615 19.0413 31.839 18.7013 32.2552 18.215C32.234 18.3188 32.1852 18.5413 32.1852 18.6463C32.1852 18.8063 32.2552 18.9238 32.4077 18.9238H33.609C33.7965 18.9238 33.9565 18.7225 33.9915 18.5275L34.7002 14.0625C34.7215 13.93 34.6165 13.7913 34.4777 13.7913H34.479ZM37.7777 11.4788C37.7777 11.34 37.674 11.2363 37.5552 11.2363H36.2702C36.1665 11.2363 36.0615 11.32 36.0477 11.4238L34.9227 18.6463L34.9027 18.6813C34.9027 18.8063 35.0065 18.9238 35.1452 18.9238H36.2915C36.4652 18.9238 36.639 18.7225 36.6527 18.5275L37.7777 11.5V11.4788ZM31.5277 15.0763C30.6802 15.0763 30.0202 15.75 30.0202 16.6038C30.0202 17.2775 30.5065 17.645 31.1452 17.645C31.979 17.645 32.6527 17.0063 32.6527 16.1525C32.6602 15.4725 32.174 15.0763 31.5277 15.0763V15.0763Z" fill="#A49F9C"/>
</svg>
