<svg width="40" height="32" viewBox="0 0 40 32" fill="none" xmlns="http://www.w3.org/2000/svg">
<path d="M32.6465 14.3462C32.6465 14.3462 33.174 16.9413 33.2928 17.485H30.974L32.0853 14.4504C32.0715 14.4717 32.314 13.8151 32.4528 13.4108L32.6465 14.3462ZM40.0003 3.79224V28.3453C39.9999 29.2332 39.6486 30.0848 39.0235 30.7126C38.3983 31.3405 37.5506 31.6934 36.6665 31.6938H3.33277C2.44871 31.6934 1.60095 31.3405 0.975822 30.7126C0.350694 30.0848 -0.000645266 29.2332 -0.000976562 28.3453V3.79224C-0.000645266 2.90427 0.350694 2.05276 0.975822 1.42487C1.60095 0.796982 2.44871 0.444089 3.33277 0.443756H36.6665C37.5506 0.444089 38.3983 0.796982 39.0235 1.42487C39.6486 2.05276 39.9999 2.90427 40.0003 3.79224V3.79224ZM10.5903 21.3143L14.979 10.4892H12.0278L9.29902 17.883L9.00027 16.3839L8.02777 11.4032C7.86777 10.7127 7.37527 10.5168 6.76402 10.4892H2.27152L2.22277 10.7052C3.25162 10.9587 4.23851 11.3604 5.15277 11.8979L7.63902 21.3143H10.5903ZM17.1465 21.3281L18.8965 10.4892H16.1053L14.3628 21.3281H17.1465ZM26.8615 17.7851C26.8753 16.5509 26.1253 15.6092 24.5215 14.8346C23.5428 14.3386 22.9453 14.0047 22.9453 13.4949C22.959 13.0342 23.4528 12.5596 24.549 12.5596C25.263 12.5393 25.9725 12.6801 26.6253 12.9714L26.8753 13.0894L27.2578 10.7453C26.4598 10.4385 25.6122 10.2823 24.7578 10.2846C22.0003 10.2846 20.0628 11.7636 20.049 13.8691C20.0278 15.4247 21.4378 16.2897 22.494 16.812C23.5703 17.3419 23.939 17.6909 23.939 18.1579C23.9253 18.8836 23.064 19.2176 22.2653 19.2176C21.154 19.2176 20.5565 19.0431 19.6465 18.6388L19.279 18.4643L18.8903 20.8988C19.5428 21.1988 20.7515 21.4637 22.0015 21.4776C24.9315 21.4838 26.8415 20.0262 26.8628 17.7813L26.8615 17.7851ZM36.6665 21.3281L34.4165 10.4892H32.2565C31.5903 10.4892 31.0828 10.6851 30.7978 11.3894L26.6515 21.3294H29.5815C29.5815 21.3294 30.0603 19.9898 30.1653 19.7048H33.749C33.8328 20.0889 34.0828 21.3294 34.0828 21.3294L36.6665 21.3281Z" fill="#A49F9C"/>
</svg>
